PathFileType	4	(X/Y/Z)	C:/Users/beibeiliu/ov580/test_trc/User3\sequence.3_training_dense_left.trc
DataRate	CameraRate	NumFrames	NumMarkers	Units	OrigDataRate	OrigDataStartFrame	OrigNumFrames
120	120	15	19	mm	120	53	78
Frame#	Time	ThumbCMC			ThumbMCP			ThumbIP			ThumbTip			IndexMCP			IndexPIP			IndexTip			MiddleMCP			MiddlePIP			MiddleTip			RingMCP			RingPIP			RingTip			PinkyMCP			PinkyPIP			PinkyTip			BackHand1			BackHand2			BackHand3	
		X0	Y0	Z0	X1	Y1	Z1	X2	Y2	Z2	X3	Y3	Z3	X4	Y4	Z4	X5	Y5	Z5	X6	Y6	Z6	X7	Y7	Z7	X8	Y8	Z8	X9	Y9	Z9	X10	Y10	Z10	X11	Y11	Z11	X12	Y12	Z12	X13	Y13	Z13	X14	Y14	Z14	X15	Y15	Z15	X16	Y16	Z16	X17	Y17	Z17	X18	Y18	Z18	
52	0.433333	-222.44	54.9434	-1.3893	-207.917	69.7617	-18.7846	-186.896	80.5372	-47.2486	-172.759	88.1488	-58.8561	-170.312	46.606	-59.2077	-149.957	50.9107	-74.2474	-128.429	52.3089	-89.5803	-156.776	29.2935	-63.1128	-140.648	37.2838	-76.3816	-114.237	44.6633	-95.0107	-155.94	12.8538	-46.1344	-137.173	18.9474	-63.0489	-114.782	18.8284	-78.1662	-156.751	-0.576839	-29.424	-139.348	3.20501	-45.3265	-122.805	2.13018	-62.032	-199.078	4.03207	-21.8174	-223.1	-6.70418	-1.29809	-222.31	29.2101	-24.245	
53	0.441667	-238.501	49.5631	-1.68022	-229.328	65.347	-28.9114	-218.413	79.274	-54.3777	-208.835	88.4081	-67.4953	-193.907	52.0004	-68.2919	-177.743	61.8429	-88.4618	-164.188	68.5235	-104.953	-178.166	42.5867	-74.3848	-161.772	51.3646	-92.752	-142.894	62.2681	-112.955	-168.999	30.3599	-59.9931	-153.043	35.331	-74.7795	-139.34	42.6298	-93.5999	-163.439	15.9549	-39.8821	-150.123	23.1111	-57.3711	-137.727	25.3931	-74.5681	-201.596	0.64912	-23.4461	-216.864	-8.48534	-3.80348	-231.334	22.8777	-25.6793	
54	0.45	-245.302	38.1807	-7.37139	-244.334	51.6817	-29.4529	-241.942	64.8996	-58.706	-237.471	75.0491	-75.0191	-212.29	44.3434	-76.2525	-201.683	54.4645	-102.005	-193.045	61.589	-118.869	-192.418	35.4662	-80.7171	-184.662	49.7019	-104.876	-173.797	61.6843	-130.267	-178.188	29.4206	-67.2249	-167.439	38.3334	-89.2999	-161.146	47.9318	-109.222	-168.591	22.1794	-51.6424	-160.631	29.1657	-68.857	-152.544	36.1529	-88.2657	-199.705	0.178533	-28.5876	-207.9	-11.0025	-1.70687	-234.101	13.0534	-23.4018	
55	0.458333	-246.335	25.5668	-4.91868	-253.76	35.6193	-32.8576	-254.345	43.2967	-59.4051	-260.873	52.8366	-80.9916	-225.529	25.4043	-77.3057	-219.891	32.5473	-104.88	-213.853	37.4874	-128.09	-208.291	20.8985	-85.7875	-205.258	29.6869	-112.539	-196.755	37.679	-137.217	-193.013	19.2919	-72.5823	-184.587	26.3805	-100.365	-180.93	33.0175	-120.926	-174.91	15.5205	-57.24	-173.109	21.5191	-75.5435	-164.088	26.8726	-101.655	-202.201	-4.11653	-28.516	-205.874	-14.1586	-3.63387	-234.664	-2.49851	-19.0568	
56	0.466667	-250.175	10.3222	-4.99566	-260.19	15.9032	-30.9102	-266.497	19.3073	-59.7831	-271.561	25.3986	-78.1639	-236.2	0.350227	-79.1805	-234.581	2.78234	-105.039	-231.221	3.74114	-128.108	-217.469	-5.1252	-87.6681	-214.9	-0.737855	-114.962	-210.318	3.97815	-144.685	-200.343	-2.47549	-74.2937	-196.097	0.575582	-103.512	-196.826	4.917	-128.645	-183.351	-1.24433	-56.9139	-181.161	0.459454	-78.5824	-175.266	2.0812	-104.964	-200.472	-20.4053	-30.997	-202.232	-28.0105	1.83018	-236.817	-14.9038	-18.3343	
57	0.475	-253.804	-4.15145	1.82644	-264.37	-3.40731	-24.8293	-270.158	-5.1664	-56.6069	-276.6	-2.70075	-76.2274	-246.808	-25.9103	-76.558	-243.999	-29.3832	-100.921	-243.488	-31.8136	-125.96	-227.477	-33.7412	-82.4478	-228.083	-33.6445	-106.406	-226.841	-32.6908	-142.669	-211.793	-29.2738	-76.529	-211.741	-30.5989	-99.9329	-210.502	-28.8863	-123.248	-190.9	-24.9178	-57.9007	-188.51	-27.228	-82.3462	-186.74	-29.7462	-103.016	-207.394	-37.0042	-23.66	-211.329	-41.1365	4.88965	-241.255	-33.7964	-10.0193	
58	0.483333	-265.99	-18.5824	6.26017	-274.15	-21.84	-21.0871	-284.247	-26.3212	-47.4129	-290.401	-29.2257	-71.398	-260.104	-51.7439	-65.2405	-260.303	-59.2177	-90.2092	-259.601	-67.4178	-118.55	-241.111	-59.8724	-72.295	-244.674	-65.0488	-103.627	-246.854	-69.3992	-134.102	-223.792	-55.9201	-66.9223	-224.988	-60.4464	-93.9149	-226.839	-62.4203	-116.492	-202.989	-50.695	-54.555	-205.027	-54.6537	-75.4535	-204.158	-60.2516	-100.516	-222.723	-56.8162	-19.5953	-217.332	-55.5202	12.6539	-250.263	-51.2273	-3.83389	
59	0.491667	-276.386	-29.5791	10.3956	-286.669	-36.6552	-16.8021	-297.344	-44.9459	-42.4075	-302.709	-51.4509	-65.3999	-280.73	-77.998	-57.8272	-285.316	-88.6125	-81.8142	-282.348	-97.3317	-100.947	-260.748	-88.8338	-63.7011	-267.215	-95.6555	-86.7557	-267.473	-104.531	-118.131	-243.114	-84.864	-60.4174	-248.333	-91.7525	-84.5589	-248.844	-99.8207	-110.834	-220.354	-76.1464	-46.159	-223.529	-87.0354	-71.6724	-225.658	-91.783	-89.8441	-232.652	-76.9483	-6.58837	-229.28	-72.1658	19.9773	-267.661	-64.7379	5.86514	
60	0.5	-285.995	-35.1641	12.2487	-297.857	-43.6802	-12.9193	-313.14	-55.5192	-40.8959	-317.982	-62.3726	-58.5558	-298.683	-88.0239	-43.3688	-305.088	-103.869	-65.7792	-308.182	-119.203	-90.6692	-287.886	-103.694	-50.8167	-291.902	-114.77	-73.2618	-301.893	-127.835	-105.759	-265.839	-104.435	-48.6896	-270.642	-115.781	-71.78	-277.26	-122.926	-94.6537	-243.971	-97.792	-38.7224	-246.793	-110.591	-58.6976	-251.567	-121.819	-77.2605	-255.504	-90.9204	-2.38947	-247.279	-79.985	27.9504	-277.611	-72.2037	12.2343	
61	0.508333	-292.645	-29.7259	9.7328	-307.535	-35.0808	-14.5183	-322.871	-43.7405	-38.8172	-333.261	-52.4441	-59.4373	-317.512	-84.662	-38.338	-329.375	-100.058	-59.9408	-339.81	-111.667	-81.1728	-312.29	-103.007	-45.2543	-320.901	-116.328	-68.0435	-332.331	-127.851	-95.2373	-289.052	-109.108	-40.265	-301.397	-119.482	-61.6888	-307.148	-131.921	-86.2579	-268.267	-110.664	-32.2025	-277.63	-120.501	-50.5833	-285.472	-128.299	-69.1131	-275.887	-93.4873	3.08074	-266.421	-82.0436	29.255	-298.238	-63.7517	18.189	
62	0.516667	-288.091	-14.528	7.2789	-305.887	-18.4865	-19.483	-318.569	-22.9008	-41.3058	-331.796	-30.5831	-62.9201	-333.212	-61.8737	-41.401	-346.44	-71.3385	-59.6179	-357.291	-85.7805	-82.3576	-330.418	-80.3518	-42.5346	-345.225	-90.175	-67.1558	-355.803	-103.699	-90.9537	-314.342	-94.3451	-37.9922	-327.378	-100.461	-56.4509	-337.18	-113.008	-82.3524	-293.823	-100.321	-25.976	-305.366	-109.826	-44.1942	-317.191	-118.795	-63.2326	-296.55	-76.6953	11.3982	-284.987	-67.8502	32.9659	-305.641	-44.9015	16.0157	
63	0.525	-272.888	1.06577	3.23607	-286.591	4.9712	-23.3194	-300.821	3.17638	-47.8142	-311.975	-0.341414	-69.6438	-328.67	-24.3021	-46.9804	-345.283	-30.753	-68.8481	-359.007	-37.7765	-89.8322	-336.332	-44.642	-47.7776	-349.164	-47.6077	-69.7036	-363.79	-53.6304	-98.9557	-325.471	-60.0965	-37.2165	-340.693	-64.1901	-60.7533	-351.458	-73.6694	-83.3174	-310.7	-72.2614	-23.8296	-324.856	-80.2379	-42.9723	-337.74	-80.3861	-64.1712	-307.348	-48.3778	8.26137	-295.515	-48.6151	36.2177	-304.326	-15.61	10.9702	
64	0.533333	-248.647	14.1482	-0.155252	-250.161	22.5286	-27.4762	-264.272	27.9242	-59.0587	-270.897	24.0456	-77.622	-302.78	13.7766	-58.6563	-316.301	15.0116	-82.3573	-325.837	15.5286	-101.725	-315.951	2.64805	-58.4067	-328.716	0.493179	-84.5232	-340.814	-1.34906	-113.018	-319.617	-18.991	-47.7226	-329.5	-18.1067	-69.7483	-338.924	-20.9533	-96.5887	-310.637	-33.3229	-32.7312	-324.254	-34.3192	-52.3024	-335.821	-36.4262	-71.2655	-301.74	-13.6445	1.51158	-291.072	-14.2989	28.1559	-280.157	14.1559	3.54112	
65	0.541667	-214.748	21.3509	-3.98442	-213.46	28.62	-34.9846	-213.678	30.8514	-60.2345	-219.354	32.5591	-84.2071	-254.318	37.8247	-65.9817	-265.978	40.359	-93.7261	-275.84	44.2395	-117.558	-274.289	33.4737	-70.7117	-285.25	33.1567	-96.6421	-293.523	33.8606	-123.276	-284.545	18.3794	-60.9267	-294.412	19.5633	-84.8203	-304.03	17.2704	-109.029	-290.071	2.85217	-44.811	-301.369	2.56549	-63.3781	-304.282	9.06016	-85.3436	-274.568	18.5108	-6.71873	-273.27	18.4565	18.1962	-247.421	35.2998	-2.72239	
66	0.55	-181.41	18.13	-5.39905	-172.457	20.6759	-32.8603	-172.638	21.9813	-63.2925	-171.112	21.3086	-86.341	-207.148	36.2332	-74.3756	-212.617	38.5565	-101.617	-218.218	42.0168	-126.653	-230.396	37.9382	-81.3564	-230.112	38.8165	-103.717	-237.97	40.5335	-137.023	-245.924	29.2859	-70.8039	-253.225	31.6718	-93.3842	-255.675	31.7594	-116.932	-258.732	18.9422	-49.2765	-262.173	21.5104	-72.3178	-269.831	24.2794	-94.5825	-239.27	36.1109	-16.2405	-239.794	35.5562	8.77678	-207.745	42.0008	-9.77819	
